# xmcd
#
# Track frame offsets:
#	150
#	9863
#	22855
#	38584
#	51618
#	65588
#	83486
#	98909
#	111975
#
# Disc length: 1619 seconds
#
# Revision: 1
# Processed by: cddbd v1.5.2PL0 Copyright (c) Steve Scherf et al.
# Submitted via: EasyCDDAExtractor 6.5.0.1
#
DISCID=65065109
DTITLE=Wilma Lee and Stoney Cooper - Wildwood Flower
DYEAR=2009
DGENRE=Country
TTITLE0=This Old House
TTITLE1=Wildwood Flower
TTITLE2=Sweet Fern
TTITLE3=On The Rock Where Moses Stood
TTITLE4=Gathering Flowers From The Hillside
TTITLE5=Hello Central Give Me Heaven
TTITLE6=Tramp On The Street
TTITLE7=Keep On The Firing Line
TTITLE8=I'm Going Home On the Morning Train
EXTD=
EXTT0=
EXTT1=
EXTT2=
EXTT3=
EXTT4=
EXTT5=
EXTT6=
EXTT7=
EXTT8=
PLAYORDER=
